<?xml version="1.0" standalone="no"?>
<!DOCTYPE svg PUBLIC "-//W3C//DTD SVG 20010904//EN"
 "http://www.w3.org/TR/2001/REC-SVG-20010904/DTD/svg10.dtd">
<svg version="1.0" xmlns="http://www.w3.org/2000/svg"
 width="528.000000pt" height="528.000000pt" viewBox="0 0 528.000000 528.000000"
 preserveAspectRatio="xMidYMid meet">
<metadata>
Created by potrace 1.14, written by Peter Selinger 2001-2017
</metadata>
<g transform="translate(0.000000,528.000000) scale(0.100000,-0.100000)"
fill="#000000" stroke="none">
<path d="M1870 4893 c-70 -9 -150 -26 -190 -41 -47 -17 -201 -91 -210 -101 -3
-3 -27 -24 -55 -46 -92 -72 -144 -133 -221 -258 l-31 -50 -257 0 c-209 0 -256
-2 -256 -13 0 -8 5 -14 10 -14 6 0 10 -4 10 -10 0 -5 37 -67 83 -137 79 -122
138 -214 182 -287 58 -96 120 -192 127 -196 21 -16 25 -107 24 -665 l-1 -610
-77 -3 -78 -3 0 95 c0 90 -2 97 -27 126 -33 35 -67 43 -110 25 -55 -23 -57
-35 -59 -330 -1 -153 2 -284 8 -302 20 -67 94 -89 152 -46 29 22 36 51 36 154
l0 79 80 0 c57 0 80 -4 81 -12 0 -7 3 -31 5 -53 3 -22 5 -47 5 -55 1 -22 29
-168 44 -225 40 -153 129 -343 223 -474 63 -89 248 -291 267 -291 5 0 35 -23
59 -46 87 -81 402 -236 531 -260 47 -9 68 -13 83 -18 23 -7 68 -15 127 -22 28
-4 56 -7 63 -8 8 -2 17 -8 21 -14 5 -9 7 -135 2 -198 -1 -7 -118 -10 -393 -10
-216 1 -409 -2 -428 -7 -81 -20 -100 -122 -33 -171 25 -19 55 -19 954 -19 856
0 930 1 954 17 55 36 57 119 3 157 -31 23 -34 23 -442 23 l-411 1 -1 100 c-1
107 2 127 20 123 10 -2 62 5 136 18 86 14 243 57 305 83 69 28 241 118 248
128 4 7 14 13 20 13 13 0 34 15 90 62 18 15 35 28 39 28 13 0 189 174 230 228
24 32 45 59 48 62 16 15 89 130 83 130 -5 0 -3 4 4 8 19 12 107 206 136 297
37 118 55 211 71 370 l3 30 79 3 79 3 0 -83 c-1 -121 22 -164 91 -172 46 -6
90 24 100 68 13 57 8 558 -6 587 -22 48 -88 69 -130 42 -51 -34 -53 -40 -54
-160 l-1 -83 -77 0 c-55 0 -78 4 -79 13 -4 44 -3 54 4 70 4 9 4 17 0 17 -4 0
-8 11 -8 25 0 14 3 25 7 25 4 0 3 13 -2 29 -4 15 -4 34 0 41 4 7 4 25 0 41 -5
15 -6 30 -3 32 2 3 4 36 3 73 -1 38 -1 78 0 89 1 11 1 27 1 35 -1 8 -1 29 0
45 0 17 0 41 0 55 -1 58 -1 77 2 113 1 20 -1 37 -5 37 -4 0 -5 6 -2 14 8 21
10 106 2 106 -4 0 -5 6 -3 13 9 23 11 117 2 117 -4 0 -5 4 -2 10 6 9 9 94 5
115 -1 6 -1 15 0 20 1 6 2 30 1 55 0 30 7 57 22 83 40 68 206 330 293 462 47
72 88 138 91 148 3 9 9 17 13 17 4 0 10 8 12 18 5 18 -8 19 -255 19 -186 0
-262 4 -265 12 -2 6 -26 46 -54 88 -58 90 -159 193 -244 250 -89 60 -226 120
-293 128 -14 2 -44 8 -66 13 -36 8 -1483 13 -1545 5z m1520 -203 c25 -4 58
-11 74 -15 41 -9 148 -54 167 -71 8 -8 19 -14 22 -14 26 0 187 -166 187 -192
0 -8 -2426 -2 -2432 6 -4 6 1 17 11 25 9 9 27 29 39 45 29 38 134 121 185 148
61 30 146 59 197 65 25 2 47 6 48 8 8 8 1460 3 1502 -5z m-2039 -1409 c20 -31
69 -108 109 -171 41 -63 94 -147 119 -186 l46 -71 0 -194 0 -194 -170 -3 -170
-2 1 452 c1 249 3 455 4 458 0 3 7 -4 13 -14 7 -10 28 -44 48 -75z m2609 49
c1 -14 1 -29 0 -35 -1 -5 -1 -39 0 -75 2 -63 3 -708 1 -742 -1 -16 -16 -18
-170 -18 l-170 0 1 198 c1 187 5 218 32 249 6 6 38 55 71 108 33 53 95 150
138 216 42 65 77 124 77 131 0 22 18 -6 20 -32z m-2102 -840 l23 -30 -29 0
c-25 0 -29 3 -26 28 3 42 3 42 32 2z m1562 0 c0 -26 -4 -30 -26 -30 l-25 0 21
30 c12 17 23 30 26 30 2 0 4 -13 4 -30z m-1794 -320 c3 -94 8 -132 28 -225 20
-90 99 -270 141 -321 6 -7 21 -27 34 -46 34 -45 177 -188 189 -188 5 0 15 -7
23 -16 7 -8 29 -24 48 -35 20 -11 54 -31 76 -43 48 -27 155 -68 155 -60 0 4 6
2 13 -4 15 -12 72 -25 163 -36 93 -12 236 -8 314 9 14 3 34 7 46 9 35 7 178
58 188 67 6 5 18 9 28 9 10 0 18 4 18 8 0 5 15 16 33 26 58 31 73 41 127 86
95 79 230 237 230 269 0 5 4 11 8 13 20 8 104 230 117 308 9 56 16 150 15 213
l0 47 170 0 171 0 -6 -65 c-15 -186 -94 -416 -198 -581 -74 -117 -210 -266
-317 -346 -78 -59 -170 -119 -170 -111 0 4 -4 3 -8 -2 -18 -27 -276 -127 -358
-139 -22 -4 -49 -8 -59 -10 -82 -15 -125 -18 -230 -18 -66 1 -136 4 -155 7
-19 3 -49 7 -66 10 -143 17 -461 149 -544 227 -10 10 -23 18 -28 18 -9 0 -205
189 -243 235 -48 58 -107 150 -149 235 -43 86 -50 101 -68 155 -6 17 -13 39
-18 50 -4 11 -8 25 -10 32 -1 6 -7 27 -12 45 -6 18 -13 51 -16 73 -3 22 -8 54
-11 70 -9 57 -12 105 -7 110 3 3 80 4 171 3 l165 -3 2 -85z m464 -50 c47 -77
88 -139 93 -140 4 0 7 -4 7 -9 0 -5 27 -51 60 -102 32 -52 103 -164 157 -249
53 -85 110 -172 126 -193 l30 -39 -49 3 c-168 10 -398 138 -511 285 -12 16
-32 41 -43 56 -49 65 -106 206 -126 316 -7 36 -13 196 -7 204 2 5 43 8 91 8
l87 -1 85 -139z m1331 123 c4 -43 -7 -195 -16 -233 -3 -14 -7 -29 -9 -35 -11
-45 -43 -127 -63 -157 -12 -21 -23 -40 -23 -44 0 -3 -8 -16 -17 -29 -10 -12
-25 -33 -33 -45 -34 -53 -131 -141 -215 -196 -38 -25 -195 -97 -195 -90 0 2
-21 -2 -47 -10 -25 -8 -61 -14 -80 -14 l-33 0 44 68 c24 37 127 198 228 357
101 160 206 325 233 367 l50 78 88 0 c76 0 87 -2 88 -17z"/>
</g>
</svg>
